<svg xmlns="http://www.w3.org/2000/svg" viewBox="0 0 213 43">
    <g fill="none" fill-rule="evenodd">
        <path fill="#0040A0" d="M189.103 10.276c.796 0 1.767.564 2.05 1.462 1.798 4.784 5.127 14.202 5.979 16.542.519-1.33 5.687-14.8 6.349-16.492.481-1.23 1.369-1.512 2.45-1.512h2.896s-1.509 3.694-1.971 4.834c-.817 2.014-6.488 15.97-8.527 20.955-4.302 10.398-12.658 5.97-12.658 5.97l.615-3.884s2.27 1.186 4.075.618c2.522-.66 3.288-2.766 4.24-4.855.12-.282-.28-1.125-.28-1.125l-8.37-22.513zm-14.591-.72c4.188 0 7.976 2.004 10.338 5.569 1.426 2.184 2.05 4.724 2.05 8.021v.668h-20.142c.713 4.055 3.921 6.729 7.843 6.729 2.852 0 5.302-1.426 6.684-3.921h4.857c-2.228 5.347-6.328 8.198-11.541 8.198-3.52 0-6.462-1.247-8.823-3.743-2.273-2.361-3.565-5.659-3.565-8.867 0-3.387 1.158-6.327 3.386-8.733 2.407-2.63 5.437-3.922 8.913-3.922zm-83.336 0c4.189 0 7.976 2.004 10.338 5.569 1.426 2.184 2.05 4.724 2.05 8.021v.668H83.423c.712 4.055 3.92 6.729 7.842 6.729 2.852 0 5.303-1.426 6.684-3.921h4.857c-2.228 5.347-6.327 8.198-11.541 8.198-3.52 0-6.461-1.247-8.823-3.743-2.272-2.361-3.565-5.659-3.565-8.867 0-3.387 1.159-6.327 3.387-8.733 2.406-2.63 5.436-3.922 8.912-3.922zm37.804.088c1.757 0 5.31.506 8.205 2.651.192-1.093 1.17-2.019 2.308-2.019h2.141v23.92h-4.367v-2.94c-2.227 2.317-4.99 3.475-8.02 3.475-7.263 0-12.522-5.436-12.522-12.61 0-3.342 1.204-6.461 3.432-8.778 2.406-2.54 5.213-3.699 8.823-3.699zm77.912 19.589v.918h-1.5v4.11h-.98v-4.11h-1.49v-.918h3.97zm1.823 0l1.6 2.494 1.599-2.494h1.004v5.028h-.98v-3.498l-1.688 2.549-1.677-2.534v3.483h-.98v-5.028h1.122zM110.26 11.846c1.939-2.62 6.778-2.472 8.922-1.644.203.089.267.209.105.328-1.166.978-2.382 2.52-2.805 3.243-.085.139-.128.16-.41.103-3.796-.769-5.821 2.168-5.821 4.732v15.589h-4.323v-23.92h2.089c.984 0 1.838.597 2.243 1.569zm39.14-9.331v31.682h-4.277V2.515h4.278zm14.203 7.761s-7.438 9.673-7.832 10.18c-.395.51-.585.772-.585 1.146 0 .3.545 1.002.626 1.103.666.808 9.395 11.492 9.395 11.492h-5.516s-4.744-5.938-7.501-9.663c-1.087-1.468-1.68-2.106-1.68-2.874 0-.768.556-1.396 1.575-2.808 2.45-3.397 6.492-8.576 6.492-8.576zM48.359 2.123c1.698 0 2.765 1.053 3.507 2.608l8.437 16.326L68.65 4.73c.879-1.784 1.81-2.608 3.508-2.608h4.195v32.074H71.88V8.109l-9.973 18.513h-3.253L48.726 8.109v26.088h-4.452V2.123zm81.021 11.71c-4.456 0-8.199 3.565-8.199 8.244 0 4.99 3.788 8.555 8.289 8.555 4.188 0 8.02-3.788 8.02-8.243 0-4.858-3.832-8.556-8.11-8.556zm45.265-.09c-3.743 0-6.728 2.363-7.753 6.195h15.284c-1.07-3.922-3.832-6.195-7.53-6.195zm-83.335 0c-3.743 0-6.73 2.363-7.754 6.195H98.84c-1.07-3.922-3.832-6.195-7.53-6.195z"/>
        <path fill="#90288C" d="M12.188 14.577l8.254-8.332c2.612-2.611 6.862-2.611 9.473 0 2.127 2.127 2.553 5.478 1.067 8.07l2.895 2.874c3.002-4.204 2.522-10.104-1.14-13.766-4.167-4.168-10.95-4.166-15.121.005L6.559 14.563l5.63.014z"/>
        <path fill="#6FBE44" d="M21.702 6.904v5.624l8.272 8.213c2.611 2.611 2.611 6.861 0 9.474-2.11 2.11-5.428 2.546-8.011 1.1l-2.903 2.882c1.84 1.304 4 1.947 6.155 1.947 2.768 0 5.527-1.054 7.58-3.108 2.017-2.016 3.127-4.7 3.126-7.559 0-2.858-1.112-5.544-3.13-7.563L21.7 6.904z"/>
        <path fill="#249ED9" d="M23.71 21.962l-8.232 8.31c-2.613 2.613-6.862 2.612-9.474 0-2.115-2.116-2.548-5.442-1.09-8.03l-2.896-2.875C-.955 23.569-.468 29.444 3.183 33.095c2.015 2.015 4.699 3.125 7.556 3.125h.002c2.86 0 5.545-1.112 7.563-3.13l11.03-11.11-5.624-.018z"/>
        <path fill="#0040A0" d="M14.22 29.616l.003-5.621-8.277-8.219c-1.263-1.263-1.959-2.945-1.959-4.737 0-1.79.696-3.472 1.96-4.736 2.12-2.121 5.46-2.55 8.05-1.078l2.9-2.879C12.691-.661 6.786-.182 3.123 3.482c-4.167 4.167-4.165 10.95.005 15.121l11.092 11.013z"/>
    </g>
</svg>
