<svg xmlns="http://www.w3.org/2000/svg" width="161.226" height="49.844" viewBox="0 0 161.226 49.844">
    <g>
        <path fill="#1f2e5f" d="M918.32 202.082c0 2.283-1.979 2.627-3.805 2.627h-.572v-5.138h.476c1.77 0 3.901.266 3.901 2.511zm32.719-22.354v49.832h-.183l-32.269-9.775-6.754.7 4.614 3.935 4.921-.561 13.93 5.7h-3.781l-10.544-4.711-3.506.441 5.007 4.271h-21.1v-49.832zm-31.045 22.391c0-2.626-1.37-4.149-5.785-4.149h-2.057v14.35h1.789v-6.014h1.028c2.722 0 5.025-1.161 5.025-4.187zm12.789-4.149h-1.789v5.786h-6.833v-5.786h-1.788v14.35h1.788v-6.89h6.833v6.889h1.789zm9.211 12.713h-4.357V197.97h-1.79v14.35h6.147z" transform="translate(-901.378 -179.719) translate(0 0.002)"/>
        <path fill="#cb1f44" d="M986.159 205.147a5.728 5.728 0 1 1-11.456 0 5.728 5.728 0 1 1 11.456 0zm5.31-5.575h-.476v5.138h.57c1.827 0 3.808-.343 3.808-2.627 0-2.244-2.132-2.511-3.902-2.511zm7.131-19.852v49.843h-49.84V179.72h49.84zm-34.04 7.857h18.061l-.77-3.934h-16.52zm-4.783 20.577c0-2.4-1.523-3.52-3.559-4.32l-1.028-.4c-.894-.343-2-.933-2-2.055a2.262 2.262 0 0 1 2.4-2.037 2.459 2.459 0 0 1 2.3 1.351l1.427-.857a4.093 4.093 0 0 0-3.691-2.169c-2.171 0-4.225 1.389-4.225 3.711 0 2 1.484 2.931 3.121 3.635l.988.419c1.238.514 2.475 1.18 2.475 2.722a2.712 2.712 0 1 1-5.423.076l-1.809.381a4.472 4.472 0 0 0 4.434 4.015 4.423 4.423 0 0 0 4.595-4.472zm11.742-10.182h-1.79v5.786H962.9v-5.786h-1.789v14.349h1.789v-6.889h6.831v6.889h1.79zm16.423 7.175a7.517 7.517 0 0 0-15.034 0 7.517 7.517 0 0 0 15.034 0zm9.1-3.026c0-2.626-1.37-4.149-5.785-4.149H989.2v14.349h1.789v-6.014h1.028c2.725.001 5.027-1.16 5.027-4.185z" transform="translate(-901.378 -179.719) translate(8.011 0)"/>
        <path fill="#1da8e0" d="M1010.986 205.148c0 4.168-3.16 5.538-6.813 5.538h-.628V199.61h.628c3.653 0 6.813 1.351 6.813 5.538zm35.509-25.429v49.843H996.65v-49.843zm-33.72 25.352c0-4.777-3.655-7.1-8.051-7.1h-2.968v14.349h2.912c4.532.001 8.107-2.359 8.107-7.25zm4.32-7.6c.771-.588 2.188-.767 2.08-2.76s-.484-10.275-.484-10.275h-.665l-.106 9.827a.3.3 0 0 1-.209.056.152.152 0 0 1-.082-.11c-.077-.276-.419-7.152-.544-9.778h-.638l-.144 9.742c0 .042-.077.125-.309.14-.241-.015-.313-.1-.318-.138l-.089-9.749h-.64c-.2 3.794-.524 9.528-.6 9.775a.148.148 0 0 1-.083.111.292.292 0 0 1-.2-.058l-.054-9.827h-.684s-.415 8.277-.541 10.27 1.292 2.183 2.058 2.777a1.244 1.244 0 0 1 .371.506 3.649 3.649 0 0 1 .156 1.673s-.32 4.417-.865 8.744a58.687 58.687 0 0 1-.967 5.824c-1.026 4.278 1.811 5.173 2.357 5.164.549.013 3.387-.858 2.388-5.144-1.084-4.682-1.729-14.582-1.729-14.582s-.231-1.597.541-2.186zm15.225.5h-1.79v10.6l-10.771-11.285v15.034h1.789v-10.694l10.772 11.285zm10.258 0h-7.708v14.349h7.708v-1.637h-5.918v-5.423h5.747v-1.637h-5.747v-4.016h5.918z" transform="translate(-901.378 -179.719) translate(16.109 0)"/>
    </g>
</svg>
