  
    <svg xmlns="http://www.w3.org/2000/svg" width="479.177" height="161.726" viewBox="0 0 479.177 161.726">
      <g>
        <g>
          <path d="M174.076,66.806v60.31H145.122V116.5c-5.992,7.878-15.762,11.985-28.263,11.985-19.7,0-31.7-11.985-31.7-28.948,0-17.473,12.507-27.753,35.463-27.927h24.33V70.241c0-9.085-6-14.561-17.989-14.561-7.71,0-17.816,2.738-27.585,7.7L90.985,43.857C105.378,37.174,118.4,33.4,133.816,33.4,159.173,33.4,173.908,45.911,174.076,66.806Zm-29.122,28.96V87.54H126.28c-8.911,0-13.366,3.087-13.366,9.944,0,6.671,4.8,10.964,13.024,10.964C135.185,108.448,143.069,103.308,144.954,95.766Z" fill="#0b143a"/>
          <path d="M189.11,127.116V0h29.639V127.116Z" fill="#0b143a"/>
          <path d="M237.236,127.116V0h29.639V127.116Z" fill="#0b143a"/>
          <path d="M371.533,88.909H306.6c2.912,10.964,10.8,17.137,21.76,17.137a31.209,31.209,0,0,0,22.1-9.421l15.594,15.246c-9.427,10.279-23.3,16.278-40.26,16.278-30.155,0-49-18.855-49-46.944,0-28.611,19.527-47.453,48.139-47.453C357.482,33.752,373.587,55.158,371.533,88.909Zm-28.444-15.93c0-11.3-7.193-18.668-17.815-18.668-10.28,0-17.305,7.53-19.184,18.668Z" fill="#0b143a"/>
          <path d="M431.625,136.711c-6.851,16.789-18.5,25.015-35.631,25.015-10.279,0-18.674-3.086-26.9-9.421l12.333-20.223c4.288,3.435,7.884,4.965,12.165,4.965,5.315,0,9.079-2.389,11.481-7.367l2.228-4.617L368.926,34.772h30.491L422.03,96.1l20.043-61.33h29.47Z" fill="#0b143a"/>
          <path d="M20.8,31.14C23.174,18.365,36.969,8.007,49.673,7.019H0V31.7H20.7Z" fill="#00b2b1"/>
          <circle cx="465.552" cy="114.933" r="13.625" fill="#00b2b1"/>
        </g>
        <path d="M60.275,7.021A24.677,24.677,0,0,0,35.6,31.7h.014v95.418H66.1V31.7h36.148V7.021Z" fill="#0b143a"/>
      </g>
    </svg>